:SAMPLES-PER-SECOND 30
:FRAME-RANGE 1-2091
:FULLY-SPECIFIED
:DEGREES
262
root  -41.0915 38.2609 80.4307 -5.73801 3.90475 -1.93316
RightUpLeg  -5.16795 -5.98473 4.19257
RightLeg  20.9519 -10.9147 -1.46922
RightFoot  -9.61264 -0.050926 -0.844479
RightToes  5.82063e-011 0 -3.6325e-017
Spine  5.21407 -1.349 10.8927
Spine1  2.43539 -0.662947 3.30842
HEad  20.4824 19.3035 -5.17936
LeftShoulder1  1.4737 -1.06894 -26.0711
LeftArm  65.7112 -3.56995 -20.2599
LeftForeArm  -9.82138 -15.1829 -14.2172
LeftHand  0.0476461 -2.64415 -0.482393
RightShoulder  8.28971 11.7338 47.6358
RightArm  20.1214 2.56978 14.3894
RightForeArm  11.7325 10.3954 13.9777
RightHand  0.485539 4.20849 5.58644
LeftUpLeg  -19.5534 9.64073 8.36268
LeftLeg  57.078 -1.42024 -1.8682
LeftFoot  -0.699982 0.861004 -9.18722
LeftToes  -6.27584e-011 -2.25241e-010 2.80627e-011
263
root  -41.019 38.4765 81.3095 -5.50301 2.87393 -1.25529
RightUpLeg  -2.70237 -6.11651 3.30083
RightLeg  18.5091 -9.71031 -0.635004
RightFoot  -9.80786 -0.057005 -0.808805
RightToes  5.82063e-011 0 -3.6325e-017
Spine  4.78539 -0.918625 10.1973
Spine1  2.28117 -0.443672 2.85603
HEad  20.3673 20.1025 -5.4902
LeftShoulder1  1.46492 -1.028 -26.1717
LeftArm  61.5114 -4.81653 -19.8574
LeftForeArm  -8.78517 -13.7476 -15.3305
LeftHand  0.0607664 -2.37145 -0.718626
RightShoulder  8.61845 12.295 47.7634
RightArm  22.8954 3.11985 14.8288
RightForeArm  8.09274 12.705 12.7706
RightHand  0.491822 4.26537 5.62489
LeftUpLeg  -20.2039 10.4502 7.69258
LeftLeg  49.0063 -1.6614 -1.63291
LeftFoot  -2.02225 0.747698 -9.01286
LeftToes  -6.27584e-011 -2.25241e-010 2.80627e-011
264
root  -40.9359 38.6754 82.1348 -5.16849 1.55857 -0.596823
RightUpLeg  -0.388646 -6.12722 2.48023
RightLeg  15.8598 -8.36592 0.00163899
RightFoot  -9.78105 -0.0545111 -0.860059
RightToes  5.82063e-011 0 -3.6325e-017
Spine  4.30502 -0.594547 9.25957
Spine1  2.24094 -0.342393 2.42029
HEad  19.9908 21.8257 -5.79335
LeftShoulder1  1.44681 -0.958727 -26.2706
LeftArm  57.2149 -5.94516 -19.4854
LeftForeArm  -7.7542 -12.4706 -16.1878
LeftHand  0.10374 -2.21686 -1.4043
RightShoulder  9.04483 12.958 48.1069
RightArm  24.5012 3.88162 15.234
RightForeArm  6.2774 13.9118 12.0301
RightHand  0.465726 4.2794 5.3035
LeftUpLeg  -19.5411 11.633 7.05164
LeftLeg  38.1286 -1.87985 -1.22712
LeftFoot  -0.588538 0.93251 -9.85451
LeftToes  -6.27584e-011 -2.25241e-010 2.80627e-011
265
root  -40.8387 38.861 82.9196 -4.85926 0.0956747 -0.00436088
RightUpLeg  1.87692 -5.84014 1.8244
RightLeg  13.0818 -7.14147 0.243706
RightFoot  -9.5585 -0.0523226 -0.796956
RightToes  5.82063e-011 0 -3.6325e-017
Spine  3.82293 -0.362293 8.13856
Spine1  2.35643 -0.299178 2.08883
HEad  19.5073 23.7354 -5.98845
LeftShoulder1  1.43365 -0.91633 -26.2838
LeftArm  57.2242 -7.03886 -19.2867
LeftForeArm  -9.39993 -12.8268 -16.0392
LeftHand  0.141095 -1.95594 -2.06978
RightShoulder  9.44011 13.5705 48.4063
RightArm  24.4287 4.74602 15.772
RightForeArm  6.51703 13.9405 11.9832
RightHand  0.463687 4.30535 5.2632
LeftUpLeg  -17.7334 13.2566 6.42547
LeftLeg  25.7838 -3.33448 -1.43131
LeftFoot  1.40209 1.29099 -11.6075
LeftToes  -6.27584e-011 -2.25241e-010 2.80627e-011
266
root  -40.705 38.9963 83.7013 -4.86651 -1.27726 0.321523
RightUpLeg  4.36736 -5.48381 1.38118
RightLeg  10.4735 -5.97939 0.211549
RightFoot  -9.42384 -0.0557251 -0.484189
RightToes  5.82063e-011 0 -3.6325e-017
Spine  3.43886 -0.326212 7.13427
Spine1  2.72815 -0.388588 1.92881
HEad  19.0432 26.1532 -5.93114
LeftShoulder1  1.44698 -0.969342 -26.1948
LeftArm  56.4014 -8.08875 -19.1738
LeftForeArm  -11.0668 -12.9536 -16.044
LeftHand  0.182369 -1.69858 -2.84746
RightShoulder  9.85146 14.2016 48.7116
RightArm  24.4244 5.42525 16.2223
RightForeArm  7.00495 13.4508 12.3581
RightHand  0.45683 4.37058 5.18415
LeftUpLeg  -15.3033 14.9823 5.75766
LeftLeg  14.3674 -3.96005 -0.847827
LeftFoot  3.84778 1.5769 -11.9689
LeftToes  -6.27584e-011 -2.25241e-010 2.80627e-011
267
root  -40.5353 39.0442 84.5327 -4.97676 -2.4448 0.364451
RightUpLeg  6.6638 -5.27488 1.05402
RightLeg  8.71153 -5.04558 0.0848315
RightFoot  -9.7877 -0.0685815 0.167306
RightToes  5.82063e-011 0 -3.6325e-017
Spine  2.6774 -0.380932 6.25422
Spine1  3.43159 -0.570959 1.99427
HEad  18.9694 28.7415 -5.51071
LeftShoulder1  1.44654 -0.973992 -26.1497
LeftArm  54.8101 -9.41315 -19.044
LeftForeArm  -12.4943 -12.8461 -16.196
LeftHand  0.219606 -1.49445 -3.58219
RightShoulder  10.2633 14.7736 49.1566
RightArm  23.0123 5.84649 16.4255
RightForeArm  8.93172 11.9462 13.3013
RightHand  0.452118 4.40813 5.0644
LeftUpLeg  -12.5562 12.6517 6.78466
LeftLeg  5.67249 1.76991 -2.13656
LeftFoot  5.25267 1.60031 -11.1664
LeftToes  -6.27584e-011 -2.25241e-010 2.80627e-011
268
root  -40.2959 38.9673 85.4116 -5.06363 -3.33879 0.102034
RightUpLeg  8.15244 -5.29252 0.776138
RightLeg  8.79586 -4.03875 -0.0476272
RightFoot  -11.1239 -0.0769681 0.847096
RightToes  5.82063e-011 0 -3.6325e-017
Spine  2.04348 -0.554998 5.8257
Spine1  3.63947 -0.835124 2.1662
HEad  19.3771 31.2506 -4.73287
LeftShoulder1  1.41502 -0.897211 -25.9904
LeftArm  56.7915 -10.269 -19.1891
LeftForeArm  -17.4705 -13.6971 -15.8791
LeftHand  0.208787 -1.14426 -3.61789
RightShoulder  10.4568 14.9114 49.7071
RightArm  21.5608 6.06894 16.3959
RightForeArm  11.3944 9.95933 14.4095
RightHand  0.461868 4.47689 5.13883
LeftUpLeg  -10.4734 10.5545 7.52906
LeftLeg  0.419546 9.07654 -3.9814
LeftFoot  7.21229 1.93214 -12.0637
LeftToes  -6.27584e-011 -2.25241e-010 2.80627e-011
269
root  -39.9985 38.7908 86.3444 -5.25672 -3.78278 -0.330386
RightUpLeg  9.37529 -5.44336 0.506075
RightLeg  9.96767 -3.29805 -0.259748
RightFoot  -13.134 -0.0593851 1.89109
RightToes  5.82063e-011 0 -3.6325e-017
Spine  1.47595 -0.789076 5.40572
Spine1  3.76474 -1.20751 2.79501
HEad  19.7873 33.7217 -3.73559
LeftShoulder1  1.39211 -0.837971 -25.8975
LeftArm  54.4077 -10.9498 -19.84
LeftForeArm  -19.363 -13.0317 -16.4563
LeftHand  0.182437 -0.493637 -3.57183
RightShoulder  10.3252 14.5689 50.0139
RightArm  19.6888 5.9603 16.2833
RightForeArm  14.2807 7.74219 15.3747
RightHand  0.476209 4.49879 5.29379
LeftUpLeg  -9.12498 10.467 7.18762
LeftLeg  -0.766163 13.5682 -4.66694
LeftFoot  8.98763 2.1715 -12.3806
LeftToes  -6.27584e-011 -2.25241e-010 2.80627e-011
